<?xml version="1.0" encoding="UTF-8" standalone="no"?>
<!-- Created with Inkscape (http://www.inkscape.org/) -->

<svg
   xmlns:dc="http://purl.org/dc/elements/1.1/"
   xmlns:cc="http://creativecommons.org/ns#"
   xmlns:rdf="http://www.w3.org/1999/02/22-rdf-syntax-ns#"
   xmlns:svg="http://www.w3.org/2000/svg"
   xmlns="http://www.w3.org/2000/svg"
   xmlns:sodipodi="http://sodipodi.sourceforge.net/DTD/sodipodi-0.dtd"
   xmlns:inkscape="http://www.inkscape.org/namespaces/inkscape"
   width="32.427799mm"
   height="5.2900457mm"
   viewBox="0 0 32.427799 5.2900457"
   version="1.1"
   id="svg71"
   inkscape:version="0.92.1 r15371"
   sodipodi:docname="logo_cribtrak.svg">
  <defs
     id="defs65" />
  <sodipodi:namedview
     id="base"
     pagecolor="#ffffff"
     bordercolor="#666666"
     borderopacity="1.0"
     inkscape:pageopacity="0.0"
     inkscape:pageshadow="2"
     inkscape:zoom="5.6"
     inkscape:cx="79.189439"
     inkscape:cy="2.2542556"
     inkscape:document-units="mm"
     inkscape:current-layer="layer1"
     showgrid="false"
     fit-margin-top="0"
     fit-margin-left="0"
     fit-margin-right="0"
     fit-margin-bottom="0" />
  <metadata
     id="metadata68">
    <rdf:RDF>
      <cc:Work
         rdf:about="">
        <dc:format>image/svg+xml</dc:format>
        <dc:type
           rdf:resource="http://purl.org/dc/dcmitype/StillImage" />
        <dc:title></dc:title>
      </cc:Work>
    </rdf:RDF>
  </metadata>
  <g
     inkscape:label="Layer 1"
     inkscape:groupmode="layer"
     id="layer1"
     transform="translate(-88.107532,-137.11689)">
    <g
       aria-label="CRIBTRAK"
       style="font-style:normal;font-variant:normal;font-weight:bold;font-stretch:normal;font-size:6.14967823px;line-height:3.84354877px;font-family:Gravicon;-inkscape-font-specification:'Gravicon Bold';text-align:center;letter-spacing:0px;word-spacing:0px;text-anchor:middle;fill:#ffffff;fill-opacity:1;stroke:none;stroke-width:0.15374194px;stroke-linecap:butt;stroke-linejoin:miter;stroke-opacity:1"
       id="text51">
      <path
         d="m 91.28156,139.43129 h -3.174028 v -0.49595 q 0,-0.20829 0.148783,-0.34716 0.148782,-0.14878 0.347159,-0.14878 h 2.013524 z m 0,1.98376 -0.664562,0.99189 h -2.013524 q -0.198377,0 -0.347159,-0.13887 -0.148783,-0.14878 -0.148783,-0.35708 v -2.28133 h 0.991884 v 1.78539 z"
         style="font-size:6.14967823px;fill:#ffffff;stroke-width:0.15374194px"
         id="path93" />
      <path
         d="M 94.854781,142.40694 H 93.67444 l -0.773669,-1.19026 H 92.39491 v 1.19026 h -0.991883 v -2.77728 h 0.991883 v 0.59513 h 1.19026 v -0.7935 h -2.182143 v -0.99189 h 2.678085 q 0.178539,0 0.357078,0.21822 0.138864,0.18845 0.138864,0.27772 v 1.78539 q 0,0.15871 -0.148783,0.32733 -0.148782,0.16862 -0.347159,0.16862 z"
         style="font-size:6.14967823px;fill:#ffffff;stroke-width:0.15374194px"
         id="path95" />
      <path
         d="M 96.19797,142.40694 H 95.206087 V 138.4394 H 96.19797 Z"
         style="font-size:6.14967823px;fill:#ffffff;stroke-width:0.15374194px"
         id="path97" />
      <path
         d="m 100.21975,141.58367 q 0,0.33724 -0.238054,0.58521 -0.238052,0.23806 -0.585212,0.23806 h -2.797111 v -2.77728 h 0.991883 v 0.19838 h 0.991884 v -0.39675 h -1.983767 v -0.99189 h 2.479709 q 0.178539,0 0.357078,0.24797 0.138863,0.19838 0.138863,0.24797 v 1.40848 l 0.505857,0.78359 q 0.13887,0.21821 0.13887,0.45626 z m -1.140668,-0.16862 -0.386835,-0.59513 h -1.100991 v 0.59513 z m -0.386835,-0.59513 z m -1.100991,0 z"
         style="font-size:6.14967823px;fill:#ffffff;stroke-width:0.15374194px"
         id="path99" />
      <path
         d="m 105.29277,137.11689 -0.88609,1.32251 h -0.96543 v -1.32251 z m -2.11602,5.29005 h -1.32251 v -3.96754 h -1.32251 v -1.32251 h 2.64502 z"
         style="font-size:8.19957066px;fill:#ffffff;stroke-width:0.15374194px"
         id="path101" />
      <path
         d="m 110.21003,142.40694 h -1.57379 l -1.03156,-1.58702 h -0.67448 v 1.58702 h -1.32251 v -3.70304 h 1.32251 v 0.79351 h 1.58702 v -1.05801 h -2.90953 v -1.32251 h 3.57078 q 0.23805,0 0.47611,0.29095 0.18515,0.25128 0.18515,0.37031 v 2.38052 q 0,0.2116 -0.19838,0.43643 -0.19838,0.22482 -0.46288,0.22482 z"
         style="font-size:8.19957066px;fill:#ffffff;stroke-width:0.15374194px"
         id="path103" />
      <path
         d="m 115.29075,142.40694 h -1.32251 v -0.79351 H 112.368 l -0.51578,0.79351 h -1.57379 l 3.1079,-4.80072 q 0.3174,-0.48933 0.87286,-0.48933 0.4232,0 0.72738,0.30418 0.30418,0.30418 0.30418,0.72738 v 1.87797 h -1.32251 v -0.88609 l -0.75383,1.15059 h 2.07634 z"
         style="font-size:8.19957066px;fill:#ffffff;stroke-width:0.15374194px"
         id="path105" />
      <path
         d="m 120.53533,142.40694 h -1.57379 l -1.54733,-2.38052 v -1.30929 l 1.03155,-1.60024 h 1.57379 l -1.45476,2.24827 z m -3.38563,0 h -1.32251 v -5.29005 h 1.32251 z"
         style="font-size:8.19957066px;fill:#ffffff;stroke-width:0.15374194px"
         id="path107" />
    </g>
  </g>
</svg>
